# xmcd
#
# Track frame offsets:
# 150
# 16847
# 33906
# 50714
# 67087
# 81805
# 101044
# 115372
# 141577
# 157494
# 178788
# 199076
# 215087
#
# Disc length: 3040 seconds
#
#
# Revision: 5
# Processed by: cddbd v1.5.1PL2 Copyright (c) Steve Scherf et al.
# Submitted via: FreeRIP 2.944 
#
DISCID=cb0bde0d
DTITLE=Jennifer Lopez - This is me ... then
DYEAR=2002
DGENRE=Pop
TTITLE0=Still
TTITLE1=Loving You
TTITLE2=I'm Glad
TTITLE3=The One
TTITLE4=Dear Ben
TTITLE5=All I Have (featuring LL Cool J)
TTITLE6=Jenny from the block
TTITLE7=Again
TTITLE8=You Belong To Me
TTITLE9=I've Been Thinkin'
TTITLE10=Baby I Love U !
TTITLE11=The One (Bonus Track - Version 2)
TTITLE12=I'm Gonna Be Alright (Track  Masters Remix featuring Nas)
EXTD=
EXTT0=
EXTT1=
EXTT2=
EXTT3=
EXTT4=
EXTT5=
EXTT6=
EXTT7=
EXTT8=
EXTT9=
EXTT10=
EXTT11=
EXTT12=
PLAYORDER=
